<svg xmlns="http://www.w3.org/2000/svg" viewBox="0 0 96 96" role="img" aria-label="森林树图标">
  <defs>
    <linearGradient id="leaf" x1="16" x2="78" y1="18" y2="54" gradientUnits="userSpaceOnUse">
      <stop offset="0" stop-color="#6f8d45"/>
      <stop offset="0.58" stop-color="#416f35"/>
      <stop offset="1" stop-color="#274e2d"/>
    </linearGradient>
    <linearGradient id="trunk" x1="44" x2="56" y1="49" y2="88" gradientUnits="userSpaceOnUse">
      <stop offset="0" stop-color="#93612f"/>
      <stop offset="1" stop-color="#5a341b"/>
    </linearGradient>
    <filter id="softShadow" x="-20%" y="-20%" width="140%" height="150%">
      <feDropShadow dx="0" dy="3" stdDeviation="2.5" flood-color="#2d3d24" flood-opacity="0.26"/>
    </filter>
  </defs>
  <rect width="96" height="96" rx="20" fill="#fffdf7"/>
  <ellipse cx="50" cy="82" rx="25" ry="5" fill="#d8cfb9"/>
  <g filter="url(#softShadow)">
    <path d="M47 43c4 12 4 26-3 40h15c-6-14-7-28-2-41H47Z" fill="url(#trunk)"/>
    <path d="M50 60c-6-5-13-8-21-8" fill="none" stroke="#6d441e" stroke-width="4" stroke-linecap="round"/>
    <path d="M52 55c6-7 14-10 24-10" fill="none" stroke="#6d441e" stroke-width="4" stroke-linecap="round"/>
    <circle cx="31" cy="42" r="15" fill="url(#leaf)"/>
    <circle cx="45" cy="31" r="18" fill="url(#leaf)"/>
    <circle cx="62" cy="41" r="17" fill="url(#leaf)"/>
    <circle cx="43" cy="49" r="18" fill="url(#leaf)"/>
    <circle cx="56" cy="25" r="13" fill="#5d823d"/>
    <circle cx="70" cy="51" r="11" fill="#395f31"/>
    <circle cx="24" cy="53" r="11" fill="#4f7437"/>
  </g>
  <path d="M31 34c5-5 12-8 20-8M19 50c5 2 9 2 14 0M58 38c6 1 11 0 15-4" fill="none" stroke="#9db46b" stroke-width="3" stroke-linecap="round" opacity=".65"/>
</svg>
