<svg xmlns="http://www.w3.org/2000/svg" viewBox="0 0 180 180" role="img" aria-label="孩子学习插画">
  <rect width="180" height="180" rx="38" fill="#EAF6FF"/>
  <circle cx="138" cy="38" r="17" fill="#FFF3C4"/>
  <path d="M26 132h128" stroke="#527AA3" stroke-width="8" stroke-linecap="round"/>
  <path d="M41 78c7-26 27-39 50-35 22 4 35 22 34 46l-84-11Z" fill="#2F7D61"/>
  <circle cx="84" cy="76" r="35" fill="#FFD7B5" stroke="#243047" stroke-width="6"/>
  <path d="M48 71c8-31 34-43 62-30 15 7 24 21 25 39-18-6-31-16-40-30-11 18-27 26-47 21Z" fill="#243047"/>
  <circle cx="72" cy="78" r="4" fill="#243047"/>
  <circle cx="98" cy="78" r="4" fill="#243047"/>
  <path d="M77 94c7 5 15 5 22 0" fill="none" stroke="#243047" stroke-width="5" stroke-linecap="round"/>
  <path d="M54 124c3-23 21-35 35-35s32 12 35 35H54Z" fill="#3B82C4" stroke="#243047" stroke-width="6" stroke-linejoin="round"/>
  <path d="M32 118c15-11 33-13 51-5v36c-18-8-36-6-51 5v-36Z" fill="#FFFFFF" stroke="#2F6EA5" stroke-width="6" stroke-linejoin="round"/>
  <path d="M83 113c18-8 36-6 51 5v36c-15-11-33-13-51-5v-36Z" fill="#FFFFFF" stroke="#2F6EA5" stroke-width="6" stroke-linejoin="round"/>
  <path d="M45 130h24M95 130h25M45 143h18M98 143h19" stroke="#C9DAEA" stroke-width="5" stroke-linecap="round"/>
  <path d="M35 46h14M132 70h14M119 25l8 8M35 35l-8 8" stroke="#FF7A59" stroke-width="7" stroke-linecap="round"/>
  <path d="M137 105l5 10 11 2-8 8 2 11-10-5-10 5 2-11-8-8 11-2 5-10Z" fill="#F5B942"/>
</svg>
